<svg xmlns="http://www.w3.org/2000/svg" xmlns:xlink="http://www.w3.org/1999/xlink" width="500" viewBox="0 0 375 125.249995" height="167" preserveAspectRatio="xMidYMid meet"><defs><g><g id="id1"></g><g id="id2"></g></g></defs><g fill="rgb(96.469116%, 21.569824%, 15.689087%)" fill-opacity="1"><g transform="translate(76.379752, 114.611214)"><g><path d="M 63.96875 0 L 41.015625 -40.5625 L 31.171875 -40.5625 L 31.171875 0 L 10.296875 0 L 10.296875 -104.09375 L 49.359375 -104.09375 C 57.410156 -104.09375 64.269531 -102.675781 69.9375 -99.84375 C 75.601562 -97.007812 79.851562 -93.179688 82.6875 -88.359375 C 85.519531 -83.535156 86.9375 -78.140625 86.9375 -72.171875 C 86.9375 -65.316406 84.945312 -59.128906 80.96875 -53.609375 C 77 -48.085938 71.085938 -44.285156 63.234375 -42.203125 L 88.140625 0 Z M 31.171875 -56.21875 L 48.609375 -56.21875 C 54.273438 -56.21875 58.5 -57.582031 61.28125 -60.3125 C 64.070312 -63.050781 65.46875 -66.859375 65.46875 -71.734375 C 65.46875 -76.503906 64.070312 -80.207031 61.28125 -82.84375 C 58.5 -85.476562 54.273438 -86.796875 48.609375 -86.796875 L 31.171875 -86.796875 Z M 31.171875 -56.21875 "></path></g></g></g><g fill="rgb(96.469116%, 21.569824%, 15.689087%)" fill-opacity="1"><g transform="translate(179.421365, 114.611214)"><g><path d="M 31.171875 -87.234375 L 31.171875 -61.140625 L 66.21875 -61.140625 L 66.21875 -44.59375 L 31.171875 -44.59375 L 31.171875 -17 L 70.6875 -17 L 70.6875 0 L 10.296875 0 L 10.296875 -104.234375 L 70.6875 -104.234375 L 70.6875 -87.234375 Z M 31.171875 -87.234375 "></path></g></g></g><g fill="rgb(96.469116%, 21.569824%, 15.689087%)" fill-opacity="1"><g transform="translate(266.209037, 114.611214)"><g><path d="M 46.671875 -104.09375 C 57.609375 -104.09375 67.226562 -101.953125 75.53125 -97.671875 C 83.832031 -93.398438 90.242188 -87.3125 94.765625 -79.40625 C 99.285156 -71.5 101.546875 -62.328125 101.546875 -51.890625 C 101.546875 -41.453125 99.285156 -32.332031 94.765625 -24.53125 C 90.242188 -16.726562 83.832031 -10.6875 75.53125 -6.40625 C 67.226562 -2.132812 57.609375 0 46.671875 0 L 10.296875 0 L 10.296875 -104.09375 Z M 45.9375 -17.75 C 56.863281 -17.75 65.3125 -20.726562 71.28125 -26.6875 C 77.25 -32.65625 80.234375 -41.054688 80.234375 -51.890625 C 80.234375 -62.734375 77.25 -71.210938 71.28125 -77.328125 C 65.3125 -83.441406 56.863281 -86.5 45.9375 -86.5 L 31.171875 -86.5 L 31.171875 -17.75 Z M 45.9375 -17.75 "></path></g></g></g><g fill="rgb(51.368713%, 51.368713%, 51.368713%)" fill-opacity="1"><g transform="translate(6.815644, 114.984764)"><g><path d="M 16.53125 -25.921875 C 19.78125 -25.921875 22.359375 -25.019531 24.265625 -23.21875 C 26.171875 -21.425781 27.125 -19.015625 27.125 -15.984375 C 27.125 -14.992188 27.046875 -14.117188 26.890625 -13.359375 C 26.703125 -12.429688 26.503906 -11.628906 26.296875 -10.953125 L 7.640625 -10.953125 C 7.609375 -10.742188 7.59375 -10.4375 7.59375 -10.03125 C 7.59375 -8.4375 8.0625 -7.1875 9 -6.28125 C 9.9375 -5.375 11.171875 -4.921875 12.703125 -4.921875 C 13.992188 -4.921875 15.109375 -5.203125 16.046875 -5.765625 C 16.984375 -6.335938 17.742188 -7.085938 18.328125 -8.015625 L 25.28125 -8.015625 C 24.144531 -5.554688 22.382812 -3.535156 20 -1.953125 C 17.625 -0.367188 14.929688 0.421875 11.921875 0.421875 C 8.671875 0.421875 6.0625 -0.5 4.09375 -2.34375 C 2.132812 -4.1875 1.15625 -6.691406 1.15625 -9.859375 C 1.15625 -10.773438 1.242188 -11.738281 1.421875 -12.75 C 1.890625 -15.394531 2.835938 -17.710938 4.265625 -19.703125 C 5.691406 -21.703125 7.460938 -23.238281 9.578125 -24.3125 C 11.691406 -25.382812 14.007812 -25.921875 16.53125 -25.921875 Z M 20.484375 -14.875 C 20.546875 -15.363281 20.578125 -15.71875 20.578125 -15.9375 C 20.578125 -17.40625 20.101562 -18.550781 19.15625 -19.375 C 18.207031 -20.207031 16.960938 -20.625 15.421875 -20.625 C 13.796875 -20.625 12.335938 -20.109375 11.046875 -19.078125 C 9.765625 -18.054688 8.859375 -16.65625 8.328125 -14.875 Z M 20.484375 -14.875 "></path></g></g></g><g fill="rgb(51.368713%, 51.368713%, 51.368713%)" fill-opacity="1"><g transform="translate(40.66242, 114.984764)"><g><path d="M 13.3125 -34.078125 L 7.28125 0 L 0.78125 0 L 6.8125 -34.078125 Z M 13.3125 -34.078125 "></path></g></g></g></svg>